<?xml version="1.0" encoding="UTF-8" standalone="no"?>
<!-- Created with Inkscape (http://www.inkscape.org/) -->

<svg
   version="1.1"
   id="svg1"
   width="6666.6665"
   height="5333.3335"
   viewBox="0 0 6666.6665 5333.3335"
   sodipodi:docname="vecteezy_letter-dc-logo-design-for-financial-development_17489161.eps"
   xmlns:inkscape="http://www.inkscape.org/namespaces/inkscape"
   xmlns:sodipodi="http://sodipodi.sourceforge.net/DTD/sodipodi-0.dtd"
   xmlns="http://www.w3.org/2000/svg"
   xmlns:svg="http://www.w3.org/2000/svg">
  <defs
     id="defs1" />
  <sodipodi:namedview
     id="namedview1"
     pagecolor="#ffffff"
     bordercolor="#000000"
     borderopacity="0.25"
     inkscape:showpageshadow="2"
     inkscape:pageopacity="0.0"
     inkscape:pagecheckerboard="0"
     inkscape:deskcolor="#d1d1d1">
    <inkscape:page
       x="0"
       y="0"
       inkscape:label="1"
       id="page1"
       width="6666.6665"
       height="5333.3335"
       margin="0"
       bleed="0" />
  </sodipodi:namedview>
  <g
     id="g1"
     inkscape:groupmode="layer"
     inkscape:label="1">
    <g
       id="group-R5">
      <path
         id="path3"
         d="m 20442.6,18462.3 c -22.5,-10.4 -45.6,-21.4 -68.1,-31.9 -169.7,-79.1 -339.4,-157.6 -509.7,-235 -29.1,-13.2 -57.6,-26.4 -86.8,-39.6 -708.5,-305.4 -1380.8,-565.7 -2014,-776.1 -240.6,-79.6 -475.7,-152.7 -705.3,-217.5 -1053.4,-299.9 -1988.2,-443.2 -2797.3,-408.1 l 1249,7083.7 h 2420.5 c 2487.6,0 3092.3,-1496.2 3092.3,-3092.8 0,-767.9 -189.5,-1572.5 -580.6,-2282.1 z m 21473.9,7036.9 c -159.8,85.7 -325.1,159.9 -494.8,224.7 -1760.9,673.9 -3821.7,393.8 -5594.1,-76.4 -352.6,-93.3 -702.5,-196.6 -1049.1,-307.5 -743.7,-237.9 -1475.3,-513.6 -2195.9,-815.1 -360.8,-150.5 -718.4,-307.6 -1074.3,-470.2 h -0.5 c -315.3,-143.9 -628.4,-291.6 -940.4,-442.1 -152.6,-73.6 -305.3,-148.3 -457.5,-223.6 -797.5,-394.3 -1602.7,-807.9 -2416.7,-1231.4 232.9,413.6 519.1,781.1 895.3,1079.8 326.8,259.8 721.7,468 1208.9,609.2 23.1,12 46.1,23 69.2,34.6 153.8,76.3 308.1,151.6 462.5,226.3 338.3,163.1 649.2,309.2 950.7,447 l 108.8,49.5 h 0.5 c 339.5,153.8 661.3,294.4 982.1,427.8 608.5,254.3 1186.4,475.1 1752.6,669.6 -661.3,303.7 -1404.4,472.3 -2159.6,472.3 -3834.3,0 -6171.4,-2246.9 -7040.3,-4847.1 -80.2,-239.5 -147.7,-482.2 -203.2,-726.1 -519,-270.8 -1041.4,-540.4 -1565.9,-806.8 69.8,424 103.8,850.2 103.8,1270.4 0,2521 -1428.6,4874 -4958,4874 h -4621.9 l -1492.3,-8493.6 c -174.7,135.2 -335.6,291.7 -482.3,469.7 -0.5,1.1 -1.6,1.6 -2.2,2.7 -25.2,30.8 -50,62.1 -74.7,93.9 -63.1,82.4 -123,169.2 -180.7,260.9 -2.7,3.9 -4.9,8.3 -7.7,12.1 l -45.6,-40.7 -1309.4,-1167.7 c 543.2,-490.4 1162.2,-841.4 1850.5,-1064.9 699.7,-227.4 1471.4,-322.4 2307.3,-298.8 1536.3,42.8 3289.5,487.7 5216.2,1253.9 l 113.7,51.1 c 200,89.5 399.9,180.7 599.8,273 544.9,252.1 1087.5,511.9 1628,778.2 180.7,89 361.4,178.5 541.5,269.2 172.5,86.2 345,173 516.9,260.3 438.3,221.9 874.9,447.1 1309.9,673.4 129.1,67 257.6,134.6 386.1,201.6 v 0.5 c 54.4,28 108.8,56.6 163.2,85.1 168,87.4 335.6,175.8 502.5,263.7 588.3,309.8 1176,621.2 1764.8,931 v 0.5 c 664,348.8 1329.1,696.5 1997.6,1037 0.5,0 0.5,0 1.1,0 443.8,226.8 889.2,450.4 1336.8,669.5 109.3,53.8 219.2,107.1 329,160.4 694.8,336.1 1391.3,671.2 2096,987 120.8,54.4 242.2,107.6 363.6,160.9 798.6,348.8 1608.7,669 2440.3,933.7 131.2,42.3 262.5,83 394.9,122 2491.9,735.4 6472.8,733.8 7305.5,-2365.1 347.1,-1291.8 31.3,-2746.8 -518.5,-3938.1 -426.2,-924.9 -1012.8,-1763.1 -1640,-2561.1 -308.2,-392.2 -639.9,-763.5 -984.3,-1124.3 -272.9,-286.2 -612.9,-755.8 -962.8,-960.1 850.2,456.4 1615.3,1067.2 2287.6,1757.6 1502.2,1543.4 2746.8,3671.7 2778.6,5878 23.7,1593.4 -877.7,3229.6 -2293.1,3988.6"
         style="fill:#ff8000;fill-opacity:1;fill-rule:nonzero;stroke:none"
         transform="matrix(0.13333333,0,0,-0.13333333,0,5333.3333)" />
      <path
         id="path4"
         d="m 28769.8,19745.3 c 568.4,302.7 1132,604.2 1691.6,898.6 464.2,244.4 906.9,479.5 1330.3,702.5 4095.8,2160.2 6454.2,3236.2 10246.8,1005.1 -2166.8,2067.9 -4141.3,2304.1 -6989.2,1262.7 h -0.5 l -0.6,-0.5 c -333.4,-121.4 -678.9,-260.9 -1037.5,-417.4 -289.5,-125.3 -587.2,-262 -895.3,-408.7 -395.4,-158.2 -784.9,-345.5 -1170.4,-544.3 -585,-301 -1161.7,-628.3 -1737.9,-921.6 -922.7,-470.2 -1843.8,-943.1 -2766.5,-1413.8 -56.6,-28.5 -112.6,-57.7 -169.2,-86.2 -169.7,-86.3 -338.9,-173 -508.6,-258.7 v -0.6 c -734.3,-373.4 -1469.2,-744.7 -2208,-1108.9 -199.9,-98.9 -399.8,-197.2 -600.3,-294.4 -492.7,-240 -988.1,-476.2 -1485.1,-707.4 -53.3,-24.7 -106.6,-49.4 -159.9,-74.2 -227.4,-105.4 -456.4,-211.4 -687.1,-316.3 -932,-424.6 -1886.6,-837.1 -2860.5,-1188.6 -1401.1,-508 -2841.8,-890.9 -4312.6,-1007.9 -175.8,-14.3 -351.6,-23 -527.9,-27.4 -1.1,-0.6 -2.7,-0.6 -3.8,0 -0.6,-0.6 -1.1,-0.6 -1.7,0 h -2.2 c -414.6,-10.5 -827.1,6 -1235.8,54.9 -283.9,33.5 -565.7,82.4 -844.2,148.3 -22.5,5.5 -45,11 -67,17 -186.2,45.1 -370.7,98.9 -553.6,160.4 -891.4,301 -1792.75,708 -2269.5,1564.8 -478.94,860.7 -609.11,1890.5 -475.09,2847.8 171.91,1228.2 743.68,2368.4 1440.12,3394.4 695.87,1026 1519.17,1958.6 2268.97,2946.1 -1623.1,-1308.8 -3109.32,-2858.8 -3978.22,-4754.2 -475.65,-1037.6 -758.51,-2192.1 -609.67,-3323.5 219.15,-1662.6 1353.34,-2916.5 2860.49,-3564.1 2026.2,-670.6 3891.9,-616.2 5754.4,-156 h 28.6 c 2388.1,0 4099.6,831.6 5234.9,2055.3 l 0.5,0.6 c 2.8,1.1 5.5,2.7 8.3,3.8 178.5,84 358.1,168.6 538.8,254.3 72.5,34.1 145,68.7 217.5,103.3 145.5,69.2 292.2,138.4 439.4,207.6 368,173.5 741.5,348.8 1121.5,523.4 179.1,82.4 359.8,164.8 541.6,246.6 106.6,48.4 214.2,96.1 321.9,143.9 423.4,-2097 1987.7,-3807.4 5155.7,-3807.4 1697.2,0 3361.4,537.8 4773,1731.3 L 33342.8,17182 c -907.9,-773.3 -2134.4,-1193.5 -3159.8,-1193.5 -2205.8,0 -3185.7,1264.9 -3387.8,2714.9 602,311.4 1199.6,628.9 1792.2,944.7 61,32.4 121.4,64.8 182.4,97.2"
         style="fill:#1a1a1a;fill-opacity:1;fill-rule:nonzero;stroke:none"
         transform="matrix(0.13333333,0,0,-0.13333333,0,5333.3333)" />
    </g>
  </g>
</svg>
